<?xml version="1.0" encoding="utf-8"?>
<!-- Generator: Adobe Illustrator 21.0.0, SVG Export Plug-In . SVG Version: 6.00 Build 0)  -->
<svg version="1.0" xmlns="http://www.w3.org/2000/svg" xmlns:xlink="http://www.w3.org/1999/xlink" x="0px" y="0px" width="165px"
	 height="32.4px" viewBox="0 0 165 32.4" enable-background="new 0 0 165 32.4" xml:space="preserve">
<g id="Layer_2">
</g>
<g id="Layer_1">
	<g>
		<defs>
			<rect id="SVGID_1_" width="165" height="32.4"/>
		</defs>
		<clipPath id="SVGID_2_">
			<use xlink:href="#SVGID_1_"  overflow="visible"/>
		</clipPath>
		<path clip-path="url(#SVGID_2_)" fill="#FA0029" d="M128.5,15.5l3.9-8.6c0.3-0.7,0.3-0.7,0.8-0.7c0.5,0,0.5,0,0.6,0.8l1.2,8.5
			H128.5z M139.1,3.5c-0.6-3.4-0.6-3.4-5.4-3.4c-4.5,0-4.4,0-5.8,2.8L117.8,24c-1.5,3-1.2,3.3,2.5,3.3c2.9,0,2.9,0,4.1-2.7l1.6-3.6
			h9.8l0.5,3.6c0.4,2.7,0.5,2.7,3.4,2.7c3.3,0,3.6-0.2,3-3.5L139.1,3.5z"/>
		<path clip-path="url(#SVGID_2_)" fill="#FA0029" d="M115.7,5.9c2.4,0,2.4,0,2.9-2.9c0.5-2.9,0.5-2.9-1.7-2.9h-12.1
			c-4.3,0-4.2,0-4.9,4.3l-3.1,18.1c-0.8,4.7-0.7,4.7,3.6,4.7h11.8c2.5,0,2.4,0,2.9-2.8c0.5-2.9,0.5-2.9-1.7-2.9h-10.2l0.8-5.2h8.5
			c2.3,0,2.3,0,2.7-2.7c0.4-2.8,0.4-2.8-2.7-2.8H105l0.8-4.9H115.7z"/>
		<path clip-path="url(#SVGID_2_)" fill="#FA0029" d="M85.9,0.2H69c-2.4,0-2.4,0-2.9,2.9c-0.5,2.9-0.4,2.9,1.7,2.9h5.5l-3.1,17.9
			c-0.6,3.5-0.5,3.5,2.6,3.5c2.9,0,3,0,3.4-2.5l3.2-18.9h5.3c2.4,0,2.4,0,2.9-2.9C88.1,0.2,88.1,0.2,85.9,0.2"/>
		<path clip-path="url(#SVGID_2_)" fill="#FA0029" d="M39.5,0.2c-3,0-3,0-3.4,2.5l-2.2,13c-0.6,3.8-1.6,6-5.3,6
			c-3.6,0-4.9-2.2-4.3-5.6l2.1-12.4c0.6-3.5,0.5-3.5-2.6-3.5c-3,0-3.1,0-3.5,2.4l-2.2,13c-1.3,7.4,3.3,12,9.8,12
			c7.3,0,11-3.3,12.2-11.1l2.2-12.9C42.8,0.2,42.6,0.2,39.5,0.2"/>
		<path clip-path="url(#SVGID_2_)" fill="#FA0029" d="M14.4,0.2H7c-2.4,0-2.4,0-2.9,2.8C3.6,5.8,3.6,5.9,5.8,5.9h4.4L7.7,20.2
			c-0.6,3.2-2,5.4-6.3,6.7C0.3,27.2,0,27.6,0,28.1c0,0.6,0.2,1.1,0.7,2.3c0.7,1.7,1.1,2,1.7,2c0.6,0,1.7-0.3,2.1-0.4
			c6.1-2,8.6-6.7,9.6-12.3l2.8-16.1C17.4,0.2,17.4,0.2,14.4,0.2"/>
		<path clip-path="url(#SVGID_2_)" fill="#FA0029" d="M53.2,21.5c2.4-0.1,3.7-1.2,3.7-2.3c0-1.4-1.7-1.9-4-2.6
			c-4.5-1.4-8.6-3-8.6-7.8c0-5.7,4.7-8.8,10.6-8.8c2.5,0,5.3,0.1,7.1,0.3c1.6,0.2,2,0.7,1.5,3.2C63,6,62.4,6.2,61,6.1
			c-1.7-0.1-3.9-0.3-6.5-0.3c-3,0-3.9,1.1-3.9,2.1c0,1.3,1.2,2,4,2.8c5.2,1.5,8.6,3.6,8.6,8.1c0,5.3-3.9,8.4-10.2,8.6
			c-3.4,0.1-6.4-0.1-9-0.5c-2-0.3-2.1-0.3-1.6-3.2c0.5-2.6,0.5-2.8,2.4-2.6C48.5,21.5,50.8,21.6,53.2,21.5"/>
		<path clip-path="url(#SVGID_2_)" fill="#FA0029" d="M163,0.2h-17c-2.4,0-2.4,0-2.9,2.9c-0.5,2.9-0.4,2.9,1.7,2.9h5.5l-3.1,17.9
			c-0.6,3.5-0.5,3.5,2.6,3.5c2.9,0,3,0,3.4-2.5l3.2-18.9h5.3c2.4,0,2.4,0,2.9-2.9C165.2,0.2,165.2,0.2,163,0.2"/>
	</g>
</g>
</svg>
